# xmcd CD database file
#
# Track frame offsets:
#	150
#	21374
#	33736
#	51723
#	67963
#	78390
#	90615
#	102852
#	114174
#	130084
#	142313
#	156009
#	170033
#	182326
#	195864
#	211404
#	225791
#	241374
#	264454
#	280040
#	300303
#
# Disc length: 4226 seconds
#
# Revision: 2
# Processed by: cddbd v1.5.1PL0 Copyright (c) Steve Scherf et al.
# Submitted via: CDex 1.51
#
DISCID=17108015
DTITLE=Bailão dos Cafagestes - Volume 6
DYEAR=1900
DGENRE=Country
TTITLE0=Abertura
TTITLE1=Carminha
TTITLE2=A Sogra 
TTITLE3=Nois É Cowboy
TTITLE4=Peão Quer Namorar
TTITLE5=Rola Pinga
TTITLE6=Obra de Arte
TTITLE7=Hoje a Proca Torce o Rabo
TTITLE8=Comida a Kilo
TTITLE9=Vira e Mexe
TTITLE10=Abre a Janela
TTITLE11=Pé Direito, Pé Esquerdo
TTITLE12=Entornando o Caldo
TTITLE13=As Mocinhas da Cidade
TTITLE14=Macaco Velho
TTITLE15=É Armação
TTITLE16=Nois Não Vive sem Dinheiro
TTITLE17=Pout Pourri
TTITLE18=Volta de Uma Vez
TTITLE19=Laço Aberto
TTITLE20=Coisas da Vida
EXTD=
EXTT0=
EXTT1=
EXTT2=
EXTT3=
EXTT4=
EXTT5=
EXTT6=
EXTT7=
EXTT8=
EXTT9=
EXTT10=
EXTT11=
EXTT12=
EXTT13=
EXTT14=
EXTT15=
EXTT16=
EXTT17=
EXTT18=
EXTT19=
EXTT20=
PLAYORDER=
